<svg width="259" height="208" viewBox="0 0 259 208" fill="none" xmlns="http://www.w3.org/2000/svg">
<path d="M204.297 207.422C196.745 207.422 189.453 206.12 182.422 203.516C175.391 200.651 169.271 196.484 164.062 191.016C158.854 185.286 154.688 178.385 151.562 170.312C148.438 161.979 146.875 152.344 146.875 141.406C146.875 100.521 172.656 53.3854 224.219 0L258.594 33.2031C253.125 38.4115 247.656 44.0104 242.188 50C236.979 55.9896 232.161 62.1094 227.734 68.3594C223.568 74.349 219.922 80.4688 216.797 86.7188C213.672 92.7083 211.328 98.3073 209.766 103.516C224.609 104.818 236.458 110.417 245.312 120.312C254.167 130.208 258.594 141.797 258.594 155.078C258.594 162.109 257.292 168.75 254.688 175C252.083 181.25 248.438 186.849 243.75 191.797C239.062 196.484 233.333 200.26 226.562 203.125C219.792 205.99 212.37 207.422 204.297 207.422ZM57.4219 207.422C49.8698 207.422 42.5781 206.12 35.5469 203.516C28.5156 200.651 22.3958 196.484 17.1875 191.016C11.9792 185.286 7.8125 178.385 4.6875 170.312C1.5625 161.979 0 152.344 0 141.406C0 100.521 25.7812 53.3854 77.3438 0L111.719 33.2031C106.25 38.4115 100.781 44.0104 95.3125 50C90.1042 55.9896 85.2865 62.1094 80.8594 68.3594C76.6927 74.349 73.0469 80.4688 69.9219 86.7188C66.7969 92.7083 64.4531 98.3073 62.8906 103.516C77.7344 104.818 89.5833 110.417 98.4375 120.312C107.292 130.208 111.719 141.797 111.719 155.078C111.719 162.109 110.417 168.75 107.812 175C105.208 181.25 101.562 186.849 96.875 191.797C92.1875 196.484 86.4583 200.26 79.6875 203.125C72.9167 205.99 65.4948 207.422 57.4219 207.422Z" fill="#0D21A1"/>
</svg>
