<svg width="751" height="754" fill="none" xmlns="http://www.w3.org/2000/svg"><circle cx="387.5" cy="407.5" r="322.5" fill="#87CEEB"/><path d="M116.764 481c-18.453 0-33.397 12.593-38.345 29.446-5.633-2.955-11.738-5.077-18.537-5.077-22.427 0-40.63 18.196-40.63 40.616 0 4.703 1.321 8.998 2.794 13.2C10.885 565.446 3 576.967 3 590.663c0 20.178 16.382 36.554 36.567 36.554H193.96c20.185 0 36.567-16.376 36.567-36.554 0-13.696-7.884-25.217-19.046-31.478 1.473-4.202 2.794-8.497 2.794-13.2 0-22.42-18.202-40.616-40.63-40.616-6.799 0-12.904 2.122-18.537 5.077C150.16 493.593 135.216 481 116.763 481h.001z" fill="#C4C5C2" stroke="#888A85" stroke-width="5.172" stroke-miterlimit="2"/><path d="M116.764 485.062c-17.793 0-30.258 10.851-35.718 31.221-5.432-2.791-12.576-6.769-19.132-6.769-22.075 0-38.64 15.749-38.64 36.923 0 4.442 2.171 10.832 3.591 14.801-10.762 5.913-19.801 15.356-19.801 27.396 0 19.057 12.564 34.524 35.26 34.524h148.877c22.517 0 35.261-15.466 35.261-34.524 0-12.936-9.04-21.662-19.802-27.575 1.42-3.969 3.771-10.18 3.771-14.621 0-21.174-17.193-37.103-38.819-37.103-6.557 0-13.341 3.978-18.773 6.769-5.282-19.658-18.284-31.03-36.08-31.03l.005-.012z" fill="url(#paint0_linear)"/><path d="M145.218 521.66c0 15.701-12.734 28.431-28.441 28.431-15.707 0-28.44-12.73-28.44-28.431 0-15.702 12.733-28.431 28.44-28.431s28.441 12.729 28.441 28.431z" fill="#C4C5C2"/><path d="M145.218 521.66c0 15.701-12.734 28.431-28.441 28.431-15.707 0-28.44-12.73-28.44-28.431 0-15.702 12.733-28.431 28.44-28.431s28.441 12.729 28.441 28.431z" fill="url(#paint1_linear)"/><path d="M202.087 541.924H39.567v73.108h162.52v-73.108z" fill="#C4C5C2"/><path d="M63.963 590.689c0 13.458-10.915 24.369-24.378 24.369-13.463 0-24.378-10.911-24.378-24.369 0-13.459 10.915-24.37 24.378-24.37 13.463 0 24.378 10.911 24.378 24.37zM202.1 546.029c0 15.702-12.734 28.431-28.441 28.431-15.707 0-28.44-12.729-28.44-28.431 0-15.701 12.733-28.431 28.44-28.431s28.441 12.73 28.441 28.431z" fill="#C4C5C2"/><path d="M202.1 546.029c0 15.702-12.734 28.431-28.441 28.431-15.707 0-28.44-12.729-28.44-28.431 0-15.701 12.733-28.431 28.44-28.431s28.441 12.73 28.441 28.431z" fill="url(#paint2_linear)"/><path d="M88.337 546.029c0 15.702-12.734 28.431-28.441 28.431-15.707 0-28.44-12.729-28.44-28.431 0-15.701 12.733-28.431 28.44-28.431s28.44 12.73 28.44 28.431z" fill="#C4C5C2"/><path d="M88.337 546.029c0 15.702-12.734 28.431-28.441 28.431-15.707 0-28.44-12.729-28.44-28.431 0-15.701 12.733-28.431 28.44-28.431s28.44 12.73 28.44 28.431z" fill="url(#paint3_linear)"/><path d="M108.394 517.798c-29.086 0-52.565 23.724-52.565 52.8 0 19.258 10.965 35.237 26.41 44.424h52.565c15.444-9.187 26.409-25.42 26.409-44.677 0-29.076-23.733-52.547-52.819-52.547z" fill="#C4C5C2"/><path d="M108.638 517.554c-29.156 0-52.819 23.655-52.819 52.801 0 19.304 10.928 35.468 26.41 44.677h52.818c15.482-9.209 26.41-25.373 26.41-44.677 0-29.146-23.663-52.801-52.819-52.801z" fill="url(#paint4_linear)"/><path d="M63.964 590.689c0 13.458-10.915 24.369-24.378 24.369-13.464 0-24.378-10.911-24.378-24.369 0-13.459 10.914-24.37 24.378-24.37 13.463 0 24.378 10.911 24.378 24.37z" fill="url(#paint5_linear)"/><path fill-rule="evenodd" clip-rule="evenodd" d="M218.013 547.366c-.016 21.808-26.566 30.17-26.566 30.17s19.086-13.209 18.989-30.097l7.577-.073z" fill="#888A85"/><path d="M177.824 582.437c0 17.946-14.554 32.494-32.505 32.494-17.952 0-32.505-14.548-32.505-32.494 0-17.945 14.553-32.493 32.505-32.493 17.951 0 32.505 14.548 32.505 32.493z" fill="#C4C5C2"/><path d="M177.824 582.437c0 17.946-14.554 32.494-32.505 32.494-17.952 0-32.505-14.548-32.505-32.494 0-17.945 14.553-32.493 32.505-32.493 17.951 0 32.505 14.548 32.505 32.493z" fill="url(#paint6_linear)"/><path d="M263.501 519.298c-24.736 0-44.769 16.881-51.402 39.473-7.551-3.962-15.734-6.806-24.848-6.806-30.065 0-54.465 24.392-54.465 54.445 0 6.305 1.771 12.062 3.745 17.695C121.569 632.498 111 647.942 111 666.301c0 27.048 21.96 49 49.018 49h206.964c27.058 0 49.018-21.952 49.018-49 0-18.359-10.569-33.804-25.53-42.196 1.974-5.633 3.744-11.391 3.744-17.695 0-30.053-24.4-54.445-54.464-54.445-9.115 0-17.298 2.844-24.849 6.806-6.632-22.592-26.665-39.473-51.401-39.473h.001z" fill="#C4C5C2" stroke="#888A85" stroke-width="5.172" stroke-miterlimit="2"/><path d="M263.501 524.742c-23.852 0-40.561 14.546-47.881 41.852-7.281-3.741-16.858-9.074-25.646-9.074-29.591 0-51.797 21.112-51.797 49.496 0 5.954 2.911 14.52 4.814 19.84-14.426 7.927-26.543 20.586-26.543 36.725 0 25.546 16.842 46.279 47.267 46.279h199.568c30.184 0 47.268-20.732 47.268-46.279 0-17.34-12.118-29.038-26.544-36.964 1.904-5.32 5.055-13.647 5.055-19.6 0-28.384-23.047-49.737-52.038-49.737-8.789 0-17.883 5.333-25.165 9.075-7.081-26.352-24.509-41.597-48.365-41.597l.007-.016z" fill="url(#paint7_linear)"/><path d="M301.644 573.802c0 21.048-17.07 38.112-38.125 38.112s-38.125-17.064-38.125-38.112c0-21.048 17.07-38.112 38.125-38.112s38.125 17.064 38.125 38.112z" fill="#C4C5C2"/><path d="M301.644 573.802c0 21.048-17.07 38.112-38.125 38.112s-38.125-17.064-38.125-38.112c0-21.048 17.07-38.112 38.125-38.112s38.125 17.064 38.125 38.112z" fill="url(#paint8_linear)"/><path d="M377.875 600.966H160.018v98.002h217.857v-98.002z" fill="#C4C5C2"/><path d="M192.721 666.335c0 18.042-14.631 32.668-32.679 32.668-18.047 0-32.678-14.626-32.678-32.668 0-18.041 14.631-32.667 32.678-32.667 18.048 0 32.679 14.626 32.679 32.667zM377.894 606.469c0 21.049-17.07 38.112-38.125 38.112s-38.125-17.063-38.125-38.112c0-21.048 17.07-38.111 38.125-38.111s38.125 17.063 38.125 38.111z" fill="#C4C5C2"/><path d="M377.894 606.469c0 21.049-17.07 38.112-38.125 38.112s-38.125-17.063-38.125-38.112c0-21.048 17.07-38.111 38.125-38.111s38.125 17.063 38.125 38.111z" fill="url(#paint9_linear)"/><path d="M225.394 606.469c0 21.049-17.07 38.112-38.125 38.112s-38.125-17.063-38.125-38.112c0-21.048 17.07-38.111 38.125-38.111s38.125 17.063 38.125 38.111z" fill="#C4C5C2"/><path d="M225.394 606.469c0 21.049-17.07 38.112-38.125 38.112s-38.125-17.063-38.125-38.112c0-21.048 17.07-38.111 38.125-38.111s38.125 17.063 38.125 38.111z" fill="url(#paint10_linear)"/><path d="M252.281 568.625c-38.99 0-70.464 31.803-70.464 70.779 0 25.815 14.699 47.235 35.402 59.551h70.464c20.703-12.316 35.402-34.075 35.402-59.89 0-38.977-31.814-70.44-70.804-70.44z" fill="#C4C5C2"/><path d="M252.608 568.299c-39.084 0-70.804 31.709-70.804 70.779 0 25.877 14.649 47.545 35.402 59.89h70.804c20.753-12.345 35.401-34.013 35.401-59.89 0-39.07-31.72-70.779-70.803-70.779z" fill="url(#paint11_linear)"/><path d="M192.722 666.335c0 18.042-14.631 32.668-32.679 32.668-18.047 0-32.678-14.626-32.678-32.668 0-18.041 14.631-32.667 32.678-32.667 18.048 0 32.679 14.626 32.679 32.667z" fill="url(#paint12_linear)"/><path fill-rule="evenodd" clip-rule="evenodd" d="M399.225 608.262c-.021 29.232-35.611 40.442-35.611 40.442s25.583-17.706 25.454-40.345l10.156-.097h.001z" fill="#888A85"/><path d="M345.352 655.274c0 24.056-19.509 43.558-43.573 43.558s-43.573-19.502-43.573-43.558c0-24.055 19.509-43.558 43.573-43.558s43.573 19.503 43.573 43.558z" fill="#C4C5C2"/><path d="M345.352 655.274c0 24.056-19.509 43.558-43.573 43.558s-43.573-19.502-43.573-43.558c0-24.055 19.509-43.558 43.573-43.558s43.573 19.503 43.573 43.558z" fill="url(#paint13_linear)"/><path d="M498.001 505.298c-30.98 0-56.071 21.143-64.378 49.438-9.458-4.962-19.707-8.524-31.122-8.524-37.654 0-68.214 30.55-68.214 68.191 0 7.895 2.217 15.107 4.689 22.162C320.238 647.076 307 666.419 307 689.413c0 33.877 27.504 61.371 61.393 61.371h259.214c33.889 0 61.393-27.494 61.393-61.371 0-22.994-13.237-42.337-31.976-52.848 2.473-7.055 4.69-14.267 4.69-22.162 0-37.641-30.56-68.191-68.214-68.191-11.416 0-21.666 3.562-31.123 8.524-8.306-28.295-33.396-49.438-64.377-49.438h.001z" fill="#C4C5C2" stroke="#888A85" stroke-width="5.172" stroke-miterlimit="2"/><path d="M498.001 512.117c-29.874 0-50.801 18.218-59.969 52.418-9.119-4.686-21.113-11.365-32.12-11.365-37.061 0-64.873 26.441-64.873 61.992 0 7.457 3.645 18.185 6.029 24.849-18.068 9.927-33.245 25.782-33.245 45.995 0 31.996 21.095 57.964 59.201 57.964h249.951c37.804 0 59.2-25.967 59.2-57.964 0-21.717-15.176-36.368-33.245-46.296 2.384-6.663 6.331-17.091 6.331-24.547 0-35.55-28.865-62.293-65.175-62.293-11.008 0-22.398 6.679-31.519 11.365-8.867-33.004-30.696-52.098-60.574-52.098l.008-.02z" fill="url(#paint14_linear)"/><path d="M545.773 573.562c0 26.362-21.379 47.734-47.749 47.734-26.371 0-47.75-21.372-47.75-47.734 0-26.361 21.379-47.733 47.75-47.733 26.37 0 47.749 21.372 47.749 47.733z" fill="#C4C5C2"/><path d="M545.773 573.562c0 26.362-21.379 47.734-47.749 47.734-26.371 0-47.75-21.372-47.75-47.734 0-26.361 21.379-47.733 47.75-47.733 26.37 0 47.749 21.372 47.749 47.733z" fill="url(#paint15_linear)"/><path d="M641.251 607.584H368.394v122.743h272.857V607.584z" fill="#C4C5C2"/><path d="M409.352 689.457c0 22.596-18.325 40.914-40.929 40.914-22.603 0-40.928-18.318-40.928-40.914s18.325-40.915 40.928-40.915c22.604 0 40.929 18.319 40.929 40.915zM641.274 614.477c0 26.362-21.379 47.733-47.75 47.733s-47.75-21.371-47.75-47.733 21.379-47.733 47.75-47.733 47.75 21.371 47.75 47.733z" fill="#C4C5C2"/><path d="M641.274 614.477c0 26.362-21.379 47.733-47.75 47.733s-47.75-21.371-47.75-47.733 21.379-47.733 47.75-47.733 47.75 21.371 47.75 47.733z" fill="url(#paint16_linear)"/><path d="M450.274 614.477c0 26.362-21.379 47.733-47.75 47.733s-47.75-21.371-47.75-47.733 21.379-47.733 47.75-47.733 47.75 21.371 47.75 47.733z" fill="#C4C5C2"/><path d="M450.274 614.477c0 26.362-21.379 47.733-47.75 47.733s-47.75-21.371-47.75-47.733 21.379-47.733 47.75-47.733 47.75 21.371 47.75 47.733z" fill="url(#paint17_linear)"/><path d="M483.949 567.078c-48.833 0-88.253 39.832-88.253 88.648 0 32.332 18.409 59.16 44.339 74.585h88.253c25.93-15.425 44.339-42.678 44.339-75.01 0-48.817-39.845-88.223-88.678-88.223z" fill="#C4C5C2"/><path d="M484.358 566.67c-48.951 0-88.679 39.714-88.679 88.647 0 32.41 18.347 59.549 44.339 75.01h88.679c25.992-15.461 44.339-42.6 44.339-75.01 0-48.933-39.728-88.647-88.678-88.647z" fill="url(#paint18_linear)"/><path d="M409.353 689.457c0 22.596-18.325 40.914-40.929 40.914-22.603 0-40.928-18.318-40.928-40.914s18.325-40.915 40.928-40.915c22.604 0 40.929 18.319 40.929 40.915z" fill="url(#paint19_linear)"/><path fill-rule="evenodd" clip-rule="evenodd" d="M667.991 616.721c-.028 36.613-44.603 50.652-44.603 50.652s32.043-22.175 31.881-50.529l12.72-.123h.002z" fill="#888A85"/><path d="M600.515 675.603c0 30.129-24.434 54.555-54.573 54.555s-54.573-24.426-54.573-54.555 24.434-54.554 54.573-54.554 54.573 24.425 54.573 54.554z" fill="#C4C5C2"/><path d="M600.515 675.603c0 30.129-24.434 54.555-54.573 54.555s-54.573-24.426-54.573-54.555 24.434-54.554 54.573-54.554 54.573 24.425 54.573 54.554z" fill="url(#paint20_linear)"/><path d="M190.001 76c-21.735 0-39.338 14.834-45.166 34.684-6.635-3.481-13.826-5.98-21.834-5.98-26.418 0-47.858 21.433-47.858 47.841 0 5.539 1.556 10.599 3.29 15.548C65.288 175.468 56 189.038 56 205.17c0 23.767 19.296 43.056 43.071 43.056H280.93c23.775 0 43.071-19.289 43.071-43.056 0-16.132-9.287-29.703-22.433-37.077 1.734-4.949 3.29-10.009 3.29-15.548 0-26.408-21.44-47.841-47.857-47.841-8.009 0-15.2 2.499-21.835 5.98C229.338 90.834 211.735 76 190 76h.001z" fill="#C4C5C2" stroke="#888A85" stroke-width="5.172" stroke-miterlimit="2"/><path d="M190.001 80.784c-20.959 0-35.641 12.781-42.073 36.775-6.398-3.288-14.812-7.973-22.535-7.973-26 0-45.513 18.55-45.513 43.492 0 5.231 2.558 12.758 4.23 17.433-12.676 6.965-23.323 18.088-23.323 32.269 0 22.447 14.8 40.665 41.533 40.665h175.358c26.523 0 41.534-18.217 41.534-40.665 0-15.236-10.648-25.515-23.324-32.48 1.673-4.675 4.442-11.991 4.442-17.222 0-24.941-20.252-43.703-45.725-43.703-7.723 0-15.714 4.686-22.113 7.974-6.221-23.155-21.536-36.55-42.497-36.55l.006-.015z" fill="url(#paint21_linear)"/><path d="M223.516 123.892c0 18.495-14.998 33.489-33.5 33.489-18.501 0-33.499-14.994-33.499-33.489 0-18.494 14.998-33.488 33.499-33.488 18.502 0 33.5 14.994 33.5 33.488z" fill="#C4C5C2"/><path d="M223.516 123.892c0 18.495-14.998 33.489-33.5 33.489-18.501 0-33.499-14.994-33.499-33.489 0-18.494 14.998-33.488 33.499-33.488 18.502 0 33.5 14.994 33.5 33.488z" fill="url(#paint22_linear)"/><path d="M290.501 147.761H99.072v86.113h191.429v-86.113z" fill="#C4C5C2"/><path d="M127.807 205.2c0 15.853-12.856 28.705-28.714 28.705-15.858 0-28.715-12.852-28.715-28.705 0-15.852 12.857-28.704 28.715-28.704s28.714 12.852 28.714 28.704zM290.516 152.597c0 18.494-14.998 33.488-33.5 33.488-18.501 0-33.499-14.994-33.499-33.488 0-18.495 14.998-33.488 33.499-33.488 18.502 0 33.5 14.993 33.5 33.488z" fill="#C4C5C2"/><path d="M290.516 152.597c0 18.494-14.998 33.488-33.5 33.488-18.501 0-33.499-14.994-33.499-33.488 0-18.495 14.998-33.488 33.499-33.488 18.502 0 33.5 14.993 33.5 33.488z" fill="url(#paint23_linear)"/><path d="M156.516 152.597c0 18.494-14.999 33.488-33.5 33.488-18.501 0-33.5-14.994-33.5-33.488 0-18.495 14.999-33.488 33.5-33.488 18.501 0 33.5 14.993 33.5 33.488z" fill="#C4C5C2"/><path d="M156.516 152.597c0 18.494-14.999 33.488-33.5 33.488-18.501 0-33.5-14.994-33.5-33.488 0-18.495 14.999-33.488 33.5-33.488 18.501 0 33.5 14.993 33.5 33.488z" fill="url(#paint24_linear)"/><path d="M180.142 119.343c-34.26 0-61.916 27.945-61.916 62.193 0 22.683 12.916 41.505 31.107 52.326h61.916c18.192-10.821 31.107-29.941 31.107-52.624 0-34.248-27.954-61.895-62.214-61.895z" fill="#C4C5C2"/><path d="M180.429 119.057c-34.342 0-62.214 27.862-62.214 62.192 0 22.738 12.871 41.778 31.107 52.625h62.214c18.236-10.847 31.107-29.887 31.107-52.625 0-34.33-27.872-62.192-62.214-62.192z" fill="url(#paint25_linear)"/><path d="M127.808 205.2c0 15.853-12.856 28.705-28.714 28.705-15.858 0-28.714-12.852-28.714-28.705 0-15.852 12.856-28.704 28.714-28.704 15.858 0 28.714 12.852 28.714 28.704z" fill="url(#paint26_linear)"/><path fill-rule="evenodd" clip-rule="evenodd" d="M309.26 154.172c-.019 25.686-31.291 35.536-31.291 35.536s22.48-15.558 22.366-35.451l8.925-.085z" fill="#888A85"/><path d="M261.922 195.481c0 21.138-17.143 38.274-38.287 38.274-21.145 0-38.287-17.136-38.287-38.274 0-21.137 17.142-38.274 38.287-38.274 21.144 0 38.287 17.137 38.287 38.274z" fill="#C4C5C2"/><path d="M261.922 195.481c0 21.138-17.143 38.274-38.287 38.274-21.145 0-38.287-17.136-38.287-38.274 0-21.137 17.142-38.274 38.287-38.274 21.144 0 38.287 17.137 38.287 38.274z" fill="url(#paint27_linear)"/><path d="M674.515 269c-11.924 0-21.581 8.138-24.778 19.029-3.641-1.91-7.586-3.281-11.979-3.281-14.493 0-26.256 11.758-26.256 26.246 0 3.039.854 5.815 1.806 8.53C606.095 323.57 601 331.015 601 339.865c0 13.039 10.586 23.622 23.63 23.622h99.77c13.044 0 23.63-10.583 23.63-23.622 0-8.85-5.095-16.295-12.307-20.341.951-2.715 1.805-5.491 1.805-8.53 0-14.488-11.763-26.246-26.256-26.246-4.393 0-8.338 1.371-11.979 3.281C696.096 277.138 686.439 269 674.515 269h0z" fill="#C4C5C2" stroke="#888A85" stroke-width="5.172" stroke-miterlimit="2"/><path d="M674.516 271.625c-11.499 0-19.553 7.012-23.082 20.175-3.51-1.804-8.127-4.374-12.363-4.374-14.265 0-24.969 10.177-24.969 23.86 0 2.87 1.403 7 2.32 9.564-6.954 3.822-12.796 9.924-12.796 17.704 0 12.315 8.12 22.31 22.786 22.31h96.205c14.551 0 22.786-9.995 22.786-22.31 0-8.359-5.841-13.998-12.796-17.819.918-2.565 2.437-6.578 2.437-9.448 0-13.684-11.11-23.977-25.085-23.977-4.237 0-8.621 2.571-12.132 4.375-3.413-12.704-11.815-20.053-23.314-20.053l.003-.007z" fill="url(#paint28_linear)"/><path d="M692.903 295.275c0 10.146-8.229 18.372-18.379 18.372-10.15 0-18.378-8.226-18.378-18.372 0-10.147 8.228-18.373 18.378-18.373s18.379 8.226 18.379 18.373z" fill="#C4C5C2"/><path d="M692.903 295.275c0 10.146-8.229 18.372-18.379 18.372-10.15 0-18.378-8.226-18.378-18.372 0-10.147 8.228-18.373 18.378-18.373s18.379 8.226 18.379 18.373z" fill="url(#paint29_linear)"/><path d="M729.652 308.369H624.63v47.244h105.022v-47.244z" fill="#C4C5C2"/><path d="M640.395 339.882c0 8.697-7.054 15.748-15.754 15.748s-15.753-7.051-15.753-15.748 7.053-15.748 15.753-15.748 15.754 7.051 15.754 15.748zM729.66 311.023c0 10.146-8.228 18.372-18.378 18.372-10.151 0-18.379-8.226-18.379-18.372 0-10.147 8.228-18.373 18.379-18.373 10.15 0 18.378 8.226 18.378 18.373z" fill="#C4C5C2"/><path d="M729.66 311.023c0 10.146-8.228 18.372-18.378 18.372-10.151 0-18.379-8.226-18.379-18.372 0-10.147 8.228-18.373 18.379-18.373 10.15 0 18.378 8.226 18.378 18.373z" fill="url(#paint30_linear)"/><path d="M656.145 311.023c0 10.146-8.229 18.372-18.379 18.372-10.15 0-18.378-8.226-18.378-18.372 0-10.147 8.228-18.373 18.378-18.373s18.379 8.226 18.379 18.373z" fill="#C4C5C2"/><path d="M656.145 311.023c0 10.146-8.229 18.372-18.379 18.372-10.15 0-18.378-8.226-18.378-18.372 0-10.147 8.228-18.373 18.378-18.373s18.379 8.226 18.379 18.373z" fill="url(#paint31_linear)"/><path d="M669.107 292.779c-18.796 0-33.968 15.331-33.968 34.12 0 12.445 7.085 22.771 17.066 28.707h33.968c9.98-5.936 17.066-16.426 17.066-28.87 0-18.79-15.336-33.957-34.132-33.957z" fill="#C4C5C2"/><path d="M669.264 292.622c-18.841 0-34.132 15.286-34.132 34.12 0 12.474 7.062 22.92 17.066 28.871h34.132c10.005-5.951 17.066-16.397 17.066-28.871 0-18.834-15.291-34.12-34.132-34.12z" fill="url(#paint32_linear)"/><path d="M640.395 339.882c0 8.697-7.053 15.748-15.753 15.748s-15.753-7.051-15.753-15.748 7.053-15.748 15.753-15.748 15.753 7.051 15.753 15.748z" fill="url(#paint33_linear)"/><path fill-rule="evenodd" clip-rule="evenodd" d="M739.944 311.886c-.011 14.093-17.168 19.496-17.168 19.496s12.334-8.535 12.271-19.448l4.896-.048h.001z" fill="#888A85"/><path d="M713.973 334.55c0 11.596-9.405 20.997-21.005 20.997-11.601 0-21.005-9.401-21.005-20.997 0-11.597 9.404-20.998 21.005-20.998 11.6 0 21.005 9.401 21.005 20.998z" fill="#C4C5C2"/><path d="M713.973 334.55c0 11.596-9.405 20.997-21.005 20.997-11.601 0-21.005-9.401-21.005-20.997 0-11.597 9.404-20.998 21.005-20.998 11.6 0 21.005 9.401 21.005 20.998z" fill="url(#paint34_linear)"/><g filter="url(#filter0_d)"><path d="M627.962 79.82c-28.915-1.502-58.435 2.585-85.216 13.707-27.186 10.913-51.327 28.306-72.603 48.252-10.917 10.161-21.186 20.995-31.197 32.03-14.081 15.254-25.432 32.796-35.833 50.708-.726 1.171-1.218 2.536-2.282 3.467-.08-1.306 1.332-2.595 1.413-3.634-17.137 1.611-34.141 5.983-49.605 13.64-11.373 5.843-22.486 13.151-29.919 23.77-10.229 13.347-20.169 26.94-29.193 41.146-3.438 5.635-6.968 11.293-9.269 17.513-.688 2.11-1.61 4.624-.157 6.626 2.1 3.477 6.285 7.025 10.552 5.321 22.154-6.579 44.345-13.938 66.589-20.452-3.198 8.908-6.989 17.646-10.06 26.617 2.005 5.139 5.011 9.873 7.486 14.75-12.141 2.401-22.979 9.502-32.155 17.524-16.235 14.898-27.273 34.64-34.662 55.416-6.73 19.375-10.876 39.771-12.796 60.081.158.184.376.389.635.268 15.412-3.421 30.515-8.305 44.982-14.613 20.956-9.146 41.289-21.394 55.898-39.361 10.462-12.604 17.235-28.471 18.188-44.873 5.097 1.808 10.164 3.838 15.431 5.176 8.386-4.123 16.278-9.247 24.494-13.696.039.188.093.378.113.578-3.243 22.63-6.88 45.368-10.072 67.906-.732 2.474.903 5.103 2.644 6.761 2.26 1.574 5.042 3.959 7.99 2.671 3.924-1.488 7.328-4.04 10.671-6.527 17.17-13.532 32.38-29.315 47.546-44.992 3.47-4.03 6.279-8.583 8.793-13.255 10.75-20.756 14.268-44.77 12.794-67.896 16.22-13.275 32.189-27.17 45.11-43.763 19.2-23.56 37.352-48.406 50.119-76.136 5.572-12.203 10.155-24.908 13.164-37.987 6.806-28.306 6.648-58.196.557-86.565l-.15-.178z" fill="#85AAB2"/><path d="M627.962 79.82c-28.915-1.502-58.435 2.585-85.216 13.707 6.437 17.49 16.95 33.522 30.595 46.236.725.482 1.374 1.125 2.19 1.463 17.521-20.414 35.039-40.832 52.581-61.229a98.57 98.57 0 01-.15-.177zm-159.81 185.911c-.096-.08-.264-.037-.416-.003-23.773 14.656-43.928 34.412-62.736 54.866-12.734 14.598-25.466 29.397-35.446 46.069-4.515 7.946-9.691 16.295-10.185 25.634.781-.229 1.187-1.073 1.74-1.581 35.687-41.613 71.435-83.175 107.123-124.791-.006-.099-.035-.161-.078-.197l-.002.003zm-65.906-41.385c-17.137 1.611-34.141 5.983-49.604 13.64-11.374 5.843-22.486 13.151-29.919 23.769-10.23 13.348-20.17 26.941-29.193 41.146-3.439 5.636-6.969 11.294-9.27 17.514-.687 2.11-1.61 4.624-.157 6.626 2.1 3.477 6.285 7.025 10.552 5.321 4.086-3.86 8.751-7.044 13.549-9.946 17.823-10.307 37.493-17.016 57.312-22.305 1.037-.494.103.728.226 1.212 11.77-24.412 23.282-48.95 35.091-73.343-.08-1.306 1.332-2.596 1.413-3.634zm-20.648 12.159c.514.407.68 1.181.211 1.73-1.839 3-4.821 4.962-7.575 7.033-5.683 3.943-11.72 7.414-18.1 10.103-5.621 2.498-10.932 5.657-16.632 7.976-.896.307-2.872 1-3.037-.463 1.372-5.569 5.837-9.716 10.363-12.94 7.736-5.403 16.363-9.415 25.164-12.746 2.974-.698 6.149-1.599 9.199-.91.152.048.289.123.408.217h-.001z" fill="#E23525"/><path d="M628.112 79.997c-17.542 20.397-35.06 40.815-52.581 61.23-.817-.338-1.465-.982-2.19-1.464.138.13.278.263.416.398 14.844 13.803 33.814 23.043 53.798 26.402 6.808-28.304 6.653-58.193.559-86.564l-.002-.002zM469.08 265.186a41.614 41.614 0 00-.337-.086c-.356.174-.671.417-1.008.628.222-.049.476-.117.495.199-35.686 41.614-71.434 83.176-107.123 124.791-.553.508-.959 1.352-1.74 1.581l-.186.332c.192.312.518.219.81.133 8.987-2.25 16.401-8.251 23.505-13.91 15.172-12.852 28.454-27.765 41.074-43.07 17.412-21.716 33.745-44.778 44.508-70.596l.002-.002zm50.085 59.259c-21.909 17.578-45.364 33.131-69.207 47.945-1.407 13.261-3.565 26.459-6.815 39.397-3.223 12.497-7.262 25.036-14.416 35.896-.732 2.474.903 5.103 2.643 6.761 2.261 1.574 5.042 3.958 7.991 2.67 3.924-1.488 7.328-4.039 10.671-6.526 17.17-13.532 32.379-29.316 47.546-44.992 3.47-4.03 6.279-8.583 8.793-13.255 10.75-20.756 14.268-44.77 12.794-67.896z" fill="#C62C24"/><path d="M542.746 93.527c-27.186 10.913-51.328 28.305-72.603 48.252-10.917 10.16-21.186 20.995-31.197 32.03-14.082 15.254-25.432 32.796-35.834 50.708-.725 1.171-1.218 2.536-2.281 3.467-11.809 24.392-23.321 48.931-35.092 73.342-1.61 3.479-3.179 6.983-4.497 10.588-3.198 8.908-6.989 17.646-10.06 26.616 2.005 5.14 5.011 9.874 7.486 14.751 2.369 3.79 4.999 7.438 7.984 10.769.894.912 1.565 2.386 2.899 2.617 9.98-16.672 22.712-31.472 35.446-46.069 18.808-20.454 38.963-40.21 62.736-54.866.336-.211.652-.454 1.007-.629 13.323-14.925 26.23-30.474 39.398-45.634-9.075-8.306-13.153-20.904-12.676-32.987.722-17.459 14.465-33.301 31.698-36.352 11.586-2.341 24.138.917 33.093 8.645 4.976-5.72 9.794-11.584 14.887-17.201-.435-.498-.929-.944-1.387-1.413a30.514 30.514 0 00-.417-.397c-13.644-12.714-24.157-28.747-30.595-46.237h.005zm3.068 79.536a4.907 4.907 0 00-.46-.353c-3.198-2.6-8.623-.451-9.023 3.729-.827 4.171 4.038 7.862 7.822 6.025 3.81-1.345 4.599-6.859 1.661-9.401zm-16.401.595a4.007 4.007 0 00-.474-.341c-5.648-3.052-14.559 2.716-12.943 9.229 2.997 5.075 10.459 2.39 13.266-1.539 1.766-1.977 2.332-5.525.151-7.349z" fill="#F9F9F9"/><path d="M573.754 140.158c14.844 13.803 33.814 23.043 53.798 26.402-3.009 13.079-7.592 25.784-13.164 37.987-12.767 27.729-30.919 52.575-50.119 76.136-12.922 16.592-28.89 30.488-45.11 43.763-21.91 17.577-45.365 33.131-69.207 47.945-3.756 2.269-7.536 4.504-11.272 6.808-8.216 4.45-16.108 9.573-24.494 13.696-5.267-1.338-10.335-3.367-15.431-5.176-3.949-1.856-7.886-3.762-11.578-6.1-1.19-.959-2.787-1.51-3.685-2.767 15.172-12.852 28.454-27.764 41.074-43.07 17.411-21.716 33.745-44.777 44.508-70.596l-.337-.086c13.323-14.925 26.229-30.475 39.397-45.634 8.786 8.453 21.661 12.232 33.636 10.123 14.929-2.365 27.788-14.181 31.421-28.849 3.668-14.888-1.046-31.98-12.937-41.968 4.976-5.721 9.794-11.585 14.887-17.201-.435-.498-.929-.945-1.387-1.413z" fill="#E8E8E8"/><path d="M527.161 150.126c11.586-2.34 24.139.918 33.094 8.646 11.891 9.988 16.604 27.08 12.937 41.968-3.634 14.668-16.493 26.484-31.421 28.849-11.975 2.109-24.851-1.67-33.636-10.123-9.075-8.306-13.153-20.904-12.676-32.987.721-17.456 14.471-33.301 31.702-36.353zm17.009 9.778c-10.783-3.625-23.509-.517-31.298 7.805-5.051 5.312-8.341 12.51-8.328 19.888-.663 10.169 4.649 20.525 13.146 26.154 6.405 4.44 14.604 6.193 22.267 4.799 8.761-1.492 16.774-7.027 21.085-14.829 4.133-7.119 5.095-15.994 2.625-23.837-2.509-9.339-10.299-17.031-19.497-19.98z" fill="#3A3A3A"/><path d="M527.281 165.949c13.5-3.914 28.909 2.051 36.386 13.936 2.471 7.843 1.509 16.718-2.624 23.837-4.311 7.802-12.324 13.337-21.086 14.829-7.663 1.394-15.862-.359-22.267-4.799-8.497-5.629-13.808-15.985-13.145-26.154 3.491-10.321 12.094-18.887 22.736-21.649zm18.07 6.758c-3.197-2.6-8.622-.45-9.023 3.729-.826 4.172 4.039 7.862 7.823 6.026 3.997-1.411 4.669-7.411 1.2-9.755zm-16.414.608c-5.649-3.053-14.56 2.715-12.943 9.229 2.997 5.075 10.459 2.389 13.266-1.539 1.883-2.11 2.403-6.005-.323-7.69z" fill="#B6E2EF"/><path d="M381.18 236.29c.811.255 1.196 1.271.618 1.946-1.838 3.001-4.821 4.963-7.575 7.034-5.683 3.943-11.719 7.414-18.099 10.103-5.622 2.497-10.933 5.657-16.633 7.976-.896.307-2.872 1-3.037-.463 1.372-5.569 5.837-9.716 10.364-12.94 7.735-5.403 16.362-9.415 25.164-12.746 2.973-.698 6.148-1.599 9.198-.91z" fill="#F45349"/><path d="M365.965 300.018c-.061-.052-.197-.036-.456.087-19.819 5.289-39.489 11.998-57.312 22.304-4.798 2.903-9.463 6.087-13.549 9.947 22.154-6.579 44.345-13.938 66.589-20.452 1.318-3.605 2.887-7.109 4.498-10.587-.092-.364.41-1.142.23-1.299zm83.985 72.366c-3.756 2.269-7.535 4.504-11.272 6.808.039.188.093.378.113.578-3.243 22.63-6.88 45.368-10.072 67.906 7.154-10.86 11.193-23.399 14.416-35.896 3.25-12.938 5.408-26.135 6.815-39.396z" fill="#9E1E1D"/><path d="M358.671 353.275c2.369 3.79 4.999 7.438 7.984 10.769-9.42 2.973-17.342 9.441-23.576 16.953-12.671 15.873-18.737 35.923-21.749 55.731-.033.196-.068.398-.108.605-14.224 16.164-28.121 32.632-42.164 48.963 1.92-20.31 6.066-40.706 12.796-60.081 7.389-20.776 18.427-40.518 34.662-55.416 9.176-8.022 20.014-15.123 32.155-17.524z" fill="#EB9D21"/><path d="M387.178 381.622c3.692 2.338 7.629 4.244 11.578 6.1-.953 16.403-7.727 32.27-18.188 44.874-14.609 17.967-34.942 30.215-55.898 39.36-14.467 6.309-29.57 11.192-44.982 14.613-.259.122-.477-.083-.635-.267 14.043-16.331 27.94-32.799 42.164-48.963 16.811-4.563 33.235-11.743 46.674-22.999 10.001-8.185 17.634-19.732 19.287-32.718z" fill="#D3891E"/><path d="M366.648 364.055c.894.912 1.565 2.385 2.899 2.616-4.515 7.946-9.69 16.295-10.185 25.633l-.186.332c-12.547 14.758-25.188 29.442-37.853 44.103 3.012-19.808 9.079-39.859 21.749-55.732 6.234-7.511 14.156-13.98 23.576-16.952z" fill="#FAEE1E"/><path d="M383.487 378.856c.898 1.257 2.495 1.808 3.685 2.767-1.653 12.986-9.287 24.533-19.287 32.717-13.439 11.257-29.863 18.436-46.674 22.999.04-.207.075-.409.108-.604 12.664-14.661 25.306-29.345 37.852-44.103.193.313.519.22.811.134 8.987-2.25 16.401-8.251 23.505-13.91z" fill="#DECF1E"/></g><defs><linearGradient id="paint0_linear" x1="39.73" y1="517.148" x2="153.551" y2="590.942" gradientUnits="userSpaceOnUse"><stop stop-color="#fff"/><stop offset="1" stop-color="#fff" stop-opacity="0"/></linearGradient><linearGradient id="paint1_linear" x1="109.415" y1="503.121" x2="127.951" y2="532.566" gradientUnits="userSpaceOnUse"><stop stop-color="#fff"/><stop offset="1" stop-color="#fff" stop-opacity="0"/></linearGradient><linearGradient id="paint2_linear" x1="157.625" y1="514.273" x2="186.288" y2="558.484" gradientUnits="userSpaceOnUse"><stop stop-color="#fff"/><stop offset="1" stop-color="#fff" stop-opacity="0"/></linearGradient><linearGradient id="paint3_linear" x1="38.968" y1="525.859" x2="68.579" y2="555.91" gradientUnits="userSpaceOnUse"><stop stop-color="#fff"/><stop offset="1" stop-color="#fff" stop-opacity="0"/></linearGradient><linearGradient id="paint4_linear" x1="71.584" y1="549.153" x2="104.398" y2="591.324" gradientUnits="userSpaceOnUse"><stop stop-color="#fff"/><stop offset="1" stop-color="#fff" stop-opacity="0"/></linearGradient><linearGradient id="paint5_linear" x1="27.02" y1="576.784" x2="49.827" y2="597.171" gradientUnits="userSpaceOnUse"><stop stop-color="#fff"/><stop offset="1" stop-color="#fff" stop-opacity="0"/></linearGradient><linearGradient id="paint6_linear" x1="110.214" y1="546.731" x2="150.431" y2="589.906" gradientUnits="userSpaceOnUse"><stop stop-color="#fff"/><stop offset="1" stop-color="#fff" stop-opacity="0"/></linearGradient><linearGradient id="paint7_linear" x1="160.236" y1="567.754" x2="312.814" y2="666.675" gradientUnits="userSpaceOnUse"><stop stop-color="#fff"/><stop offset="1" stop-color="#fff" stop-opacity="0"/></linearGradient><linearGradient id="paint8_linear" x1="253.65" y1="548.95" x2="278.498" y2="588.422" gradientUnits="userSpaceOnUse"><stop stop-color="#fff"/><stop offset="1" stop-color="#fff" stop-opacity="0"/></linearGradient><linearGradient id="paint9_linear" x1="318.275" y1="563.899" x2="356.698" y2="623.164" gradientUnits="userSpaceOnUse"><stop stop-color="#fff"/><stop offset="1" stop-color="#fff" stop-opacity="0"/></linearGradient><linearGradient id="paint10_linear" x1="159.215" y1="579.432" x2="198.908" y2="619.714" gradientUnits="userSpaceOnUse"><stop stop-color="#fff"/><stop offset="1" stop-color="#fff" stop-opacity="0"/></linearGradient><linearGradient id="paint11_linear" x1="202.936" y1="610.657" x2="246.925" y2="667.186" gradientUnits="userSpaceOnUse"><stop stop-color="#fff"/><stop offset="1" stop-color="#fff" stop-opacity="0"/></linearGradient><linearGradient id="paint12_linear" x1="143.198" y1="647.697" x2="173.771" y2="675.024" gradientUnits="userSpaceOnUse"><stop stop-color="#fff"/><stop offset="1" stop-color="#fff" stop-opacity="0"/></linearGradient><linearGradient id="paint13_linear" x1="254.72" y1="607.41" x2="308.632" y2="665.287" gradientUnits="userSpaceOnUse"><stop stop-color="#fff"/><stop offset="1" stop-color="#fff" stop-opacity="0"/></linearGradient><linearGradient id="paint14_linear" x1="368.667" y1="565.987" x2="559.764" y2="689.882" gradientUnits="userSpaceOnUse"><stop stop-color="#fff"/><stop offset="1" stop-color="#fff" stop-opacity="0"/></linearGradient><linearGradient id="paint15_linear" x1="485.663" y1="542.437" x2="516.784" y2="591.873" gradientUnits="userSpaceOnUse"><stop stop-color="#fff"/><stop offset="1" stop-color="#fff" stop-opacity="0"/></linearGradient><linearGradient id="paint16_linear" x1="566.604" y1="561.16" x2="614.727" y2="635.387" gradientUnits="userSpaceOnUse"><stop stop-color="#fff"/><stop offset="1" stop-color="#fff" stop-opacity="0"/></linearGradient><linearGradient id="paint17_linear" x1="367.387" y1="580.613" x2="417.102" y2="631.066" gradientUnits="userSpaceOnUse"><stop stop-color="#fff"/><stop offset="1" stop-color="#fff" stop-opacity="0"/></linearGradient><linearGradient id="paint18_linear" x1="422.146" y1="619.722" x2="477.24" y2="690.522" gradientUnits="userSpaceOnUse"><stop stop-color="#fff"/><stop offset="1" stop-color="#fff" stop-opacity="0"/></linearGradient><linearGradient id="paint19_linear" x1="347.327" y1="666.112" x2="385.618" y2="700.339" gradientUnits="userSpaceOnUse"><stop stop-color="#fff"/><stop offset="1" stop-color="#fff" stop-opacity="0"/></linearGradient><linearGradient id="paint20_linear" x1="487.003" y1="615.655" x2="554.525" y2="688.143" gradientUnits="userSpaceOnUse"><stop stop-color="#fff"/><stop offset="1" stop-color="#fff" stop-opacity="0"/></linearGradient><linearGradient id="paint21_linear" x1="99.263" y1="118.578" x2="233.332" y2="205.499" gradientUnits="userSpaceOnUse"><stop stop-color="#fff"/><stop offset="1" stop-color="#fff" stop-opacity="0"/></linearGradient><linearGradient id="paint22_linear" x1="181.344" y1="102.055" x2="203.178" y2="136.738" gradientUnits="userSpaceOnUse"><stop stop-color="#fff"/><stop offset="1" stop-color="#fff" stop-opacity="0"/></linearGradient><linearGradient id="paint23_linear" x1="238.13" y1="115.191" x2="271.892" y2="167.267" gradientUnits="userSpaceOnUse"><stop stop-color="#fff"/><stop offset="1" stop-color="#fff" stop-opacity="0"/></linearGradient><linearGradient id="paint24_linear" x1="98.365" y1="128.839" x2="133.244" y2="164.235" gradientUnits="userSpaceOnUse"><stop stop-color="#fff"/><stop offset="1" stop-color="#fff" stop-opacity="0"/></linearGradient><linearGradient id="paint25_linear" x1="136.783" y1="156.277" x2="175.435" y2="205.948" gradientUnits="userSpaceOnUse"><stop stop-color="#fff"/><stop offset="1" stop-color="#fff" stop-opacity="0"/></linearGradient><linearGradient id="paint26_linear" x1="84.293" y1="188.823" x2="111.157" y2="212.835" gradientUnits="userSpaceOnUse"><stop stop-color="#fff"/><stop offset="1" stop-color="#fff" stop-opacity="0"/></linearGradient><linearGradient id="paint27_linear" x1="182.285" y1="153.423" x2="229.656" y2="204.279" gradientUnits="userSpaceOnUse"><stop stop-color="#fff"/><stop offset="1" stop-color="#fff" stop-opacity="0"/></linearGradient><linearGradient id="paint28_linear" x1="624.735" y1="292.359" x2="698.288" y2="340.046" gradientUnits="userSpaceOnUse"><stop stop-color="#fff"/><stop offset="1" stop-color="#fff" stop-opacity="0"/></linearGradient><linearGradient id="paint29_linear" x1="669.767" y1="283.295" x2="681.745" y2="302.322" gradientUnits="userSpaceOnUse"><stop stop-color="#fff"/><stop offset="1" stop-color="#fff" stop-opacity="0"/></linearGradient><linearGradient id="paint30_linear" x1="700.92" y1="290.501" x2="719.442" y2="319.071" gradientUnits="userSpaceOnUse"><stop stop-color="#fff"/><stop offset="1" stop-color="#fff" stop-opacity="0"/></linearGradient><linearGradient id="paint31_linear" x1="624.242" y1="297.989" x2="643.377" y2="317.407" gradientUnits="userSpaceOnUse"><stop stop-color="#fff"/><stop offset="1" stop-color="#fff" stop-opacity="0"/></linearGradient><linearGradient id="paint32_linear" x1="645.319" y1="313.041" x2="666.525" y2="340.292" gradientUnits="userSpaceOnUse"><stop stop-color="#fff"/><stop offset="1" stop-color="#fff" stop-opacity="0"/></linearGradient><linearGradient id="paint33_linear" x1="616.522" y1="330.897" x2="631.26" y2="344.071" gradientUnits="userSpaceOnUse"><stop stop-color="#fff"/><stop offset="1" stop-color="#fff" stop-opacity="0"/></linearGradient><linearGradient id="paint34_linear" x1="670.282" y1="311.476" x2="696.272" y2="339.376" gradientUnits="userSpaceOnUse"><stop stop-color="#fff"/><stop offset="1" stop-color="#fff" stop-opacity="0"/></linearGradient><filter id="filter0_d" x="183.001" y="0" width="540.926" height="574.071" filterUnits="userSpaceOnUse" color-interpolation-filters="sRGB"><feFlood flood-opacity="0" result="BackgroundImageFix"/><feColorMatrix in="SourceAlpha" values="0 0 0 0 0 0 0 0 0 0 0 0 0 0 0 0 0 0 127 0"/><feOffset dy="4"/><feGaussianBlur stdDeviation="5"/><feColorMatrix values="0 0 0 0 0 0 0 0 0 0 0 0 0 0 0 0 0 0 0.25 0"/><feBlend in2="BackgroundImageFix" result="effect1_dropShadow"/><feBlend in="SourceGraphic" in2="effect1_dropShadow" result="shape"/></filter></defs></svg>