<svg width="65" height="65" viewBox="0 0 65 65" fill="none" xmlns="http://www.w3.org/2000/svg">
<path d="M21.7409 52.3379C21.7409 52.6067 21.4395 52.8218 21.0595 52.8218C20.627 52.8621 20.3256 52.647 20.3256 52.3379C20.3256 52.0691 20.627 51.854 21.0071 51.854C21.4002 51.8137 21.7409 52.0288 21.7409 52.3379ZM17.6653 51.7331C17.5736 52.0019 17.8357 52.311 18.2288 52.3917C18.5696 52.5261 18.9627 52.3917 19.0413 52.1229C19.12 51.854 18.871 51.5449 18.4778 51.4239C18.1371 51.3299 17.7571 51.4643 17.6653 51.7331ZM23.4577 51.5046C23.0776 51.5987 22.8155 51.854 22.8548 52.1632C22.8942 52.432 23.2349 52.6067 23.628 52.5126C24.0081 52.4186 24.2702 52.1632 24.2308 51.8944C24.1915 51.639 23.8377 51.4643 23.4577 51.5046ZM32.0806 0C13.9042 0 0 14.153 0 32.7952C0 47.7009 9.14718 60.4561 22.2127 64.9452C23.8901 65.2544 24.4798 64.1926 24.4798 63.3189C24.4798 62.4856 24.4405 57.8889 24.4405 55.0664C24.4405 55.0664 15.2671 57.0825 13.3407 51.061C13.3407 51.061 11.8468 47.1498 9.69758 46.1418C9.69758 46.1418 6.69657 44.0316 9.90726 44.0719C9.90726 44.0719 13.1704 44.3407 14.9657 47.5396C17.8357 52.7277 22.6452 51.2358 24.5192 50.3487C24.8206 48.1982 25.6724 46.7063 26.6159 45.8192C19.2903 44.9859 11.8992 43.8972 11.8992 30.9673C11.8992 27.2711 12.8952 25.4163 14.9919 23.0507C14.6512 22.1771 13.5373 18.575 15.3327 13.9245C18.0716 13.0509 24.375 17.5535 24.375 17.5535C26.996 16.8008 29.8135 16.411 32.6048 16.411C35.3962 16.411 38.2137 16.8008 40.8347 17.5535C40.8347 17.5535 47.1381 13.0374 49.877 13.9245C51.6724 18.5884 50.5585 22.1771 50.2177 23.0507C52.3145 25.4297 53.5988 27.2845 53.5988 30.9673C53.5988 43.9375 45.88 44.9724 38.5544 45.8192C39.7601 46.881 40.7823 48.8971 40.7823 52.0557C40.7823 56.5852 40.7429 62.1899 40.7429 63.292C40.7429 64.1657 41.3458 65.2275 43.0101 64.9184C56.1149 60.4561 65 47.7009 65 32.7952C65 14.153 50.2571 0 32.0806 0ZM12.7379 46.3568C12.5675 46.4912 12.6069 46.8004 12.8296 47.0557C13.0393 47.2708 13.3407 47.3649 13.5111 47.1901C13.6815 47.0557 13.6421 46.7466 13.4194 46.4912C13.2097 46.2762 12.9083 46.1821 12.7379 46.3568ZM11.3226 45.2681C11.2308 45.4428 11.3619 45.6579 11.624 45.7923C11.8337 45.9267 12.0958 45.8864 12.1875 45.6982C12.2792 45.5235 12.1482 45.3084 11.8861 45.174C11.624 45.0934 11.4143 45.1337 11.3226 45.2681ZM15.5685 50.053C15.3589 50.2277 15.4375 50.6309 15.7389 50.8863C16.0403 51.1955 16.4204 51.2358 16.5907 51.0207C16.7611 50.846 16.6825 50.4428 16.4204 50.1874C16.1321 49.8783 15.7389 49.8379 15.5685 50.053ZM14.0746 48.0772C13.8649 48.2116 13.8649 48.5611 14.0746 48.8702C14.2843 49.1794 14.6381 49.3138 14.8085 49.1794C15.0181 49.0046 15.0181 48.6552 14.8085 48.346C14.625 48.0369 14.2843 47.9025 14.0746 48.0772Z" fill="#0D21A1"/>
</svg>
