<svg width="585" height="585" viewBox="0 0 585 585" fill="none" xmlns="http://www.w3.org/2000/svg">
<rect width="585" height="585" rx="31" fill="white"/>
<path d="M137.205 410C134.247 410 131.733 409.113 129.662 407.34C127.887 405.27 127 402.758 127 399.802V189.632C127 186.676 127.887 184.311 129.662 182.538C131.733 180.469 134.247 179.434 137.205 179.434H157.172C160.13 179.434 162.496 180.469 164.271 182.538C166.341 184.311 167.377 186.676 167.377 189.632V205.151C182.758 185.05 204.204 175 231.713 175C264.547 175 287.767 188.597 301.374 215.792C308.473 203.377 318.53 193.475 331.546 186.085C344.561 178.695 359.203 175 375.472 175C399.727 175 419.546 183.277 434.928 199.83C450.309 216.384 458 240.327 458 271.66V399.802C458 402.758 456.965 405.27 454.894 407.34C453.119 409.113 450.753 410 447.795 410H426.941C423.983 410 421.469 409.113 419.398 407.34C417.623 405.27 416.736 402.758 416.736 399.802V275.651C416.736 252.594 411.855 236.041 402.094 225.991C392.628 215.94 380.057 210.915 364.379 210.915C350.477 210.915 338.497 216.088 328.44 226.434C318.382 236.484 313.354 252.89 313.354 275.651V399.802C313.354 402.758 312.319 405.27 310.248 407.34C308.473 409.113 306.107 410 303.149 410H282.295C279.337 410 276.823 409.113 274.752 407.34C272.977 405.27 272.09 402.758 272.09 399.802V275.651C272.09 252.594 267.061 236.041 257.004 225.991C247.243 215.94 234.819 210.915 219.733 210.915C205.831 210.915 193.851 216.088 183.794 226.434C173.736 236.484 168.708 252.742 168.708 275.208V399.802C168.708 402.758 167.672 405.27 165.602 407.34C163.827 409.113 161.461 410 158.503 410H137.205Z" fill="black"/>
</svg>
