<?xml version="1.0" standalone="no"?>
<!DOCTYPE svg PUBLIC "-//W3C//DTD SVG 20010904//EN"
 "http://www.w3.org/TR/2001/REC-SVG-20010904/DTD/svg10.dtd">
<svg version="1.0" xmlns="http://www.w3.org/2000/svg"
 width="700.000000pt" height="700.000000pt" viewBox="0 0 700.000000 700.000000"
 preserveAspectRatio="xMidYMid meet">
<metadata>
Created by potrace 1.14, written by Peter Selinger 2001-2017
</metadata>
<g transform="translate(0.000000,700.000000) scale(0.100000,-0.100000)"
fill="#000000" stroke="none">
<path d="M258 6981 c-113 -37 -209 -135 -242 -250 -14 -49 -16 -379 -16 -3231
0 -2852 2 -3182 16 -3231 33 -115 129 -213 242 -250 55 -17 192 -18 3239 -18
3088 -1 3183 -1 3242 18 120 37 207 127 249 256 4 11 8 1456 9 3211 3 2886 1
3196 -13 3244 -39 131 -133 222 -269 259 -29 8 -947 11 -3220 10 -3049 0
-3182 -1 -3237 -18z"/>
</g>
</svg>
